<svg xmlns="http://www.w3.org/2000/svg" id="Layer_2" data-name="Layer 2" viewBox="0 0 305.5 75.6" class="fill-current _logo_10ff3_11"><defs></defs><g id="logo"><path d="M.099.031V47.24l28.325 28.329 14.164-28.326 14.164-.003V.031H.099z" style="fill: rgb(0, 146, 134);"></path><path d="M28.424 75.569 56.752 47.24 28.424 18.915v56.654z" style="fill: rgb(243, 192, 0);"></path><path d="m82.851 37.635 1.863-7.268h9.357l1.817 7.268h7.224l-8.9-32.8h-9.043l-9.086 32.8Zm9.767-12.31h-6.541l3.134-14.176h.089ZM115.844 23.28h4c3.451 0 4.542 1.772 4.542 4.682 0 4.585-3.271 4.631-4.724 4.631h-3.816V23.28Zm0-13.4h4.224a3.929 3.929 0 0 1 3.953 4.178c0 3.18-2.09 4.179-3.589 4.179h-4.587V9.88Zm5.269 27.755c2.908 0 10.131-.362 10.131-8.677 0-4.495-1.272-7.631-6.133-8.312v-.09c3.726-.726 5.588-3.453 5.588-7.223 0-6.995-4.314-8.5-9.54-8.5h-12.174v32.8h12.128ZM145.657 37.635V13.649h.089l8.949 23.986h9.041V4.838h-6.406V27.55h-.091l-8.722-22.712h-9.267v32.797h6.407zM174.5 23.15l4.401-4.402-4.401-4.388-4.388 4.388 4.388 4.402zM187.871 37.635l1.862-7.268h9.357l1.817 7.268h7.224l-8.9-32.8h-9.039l-9.086 32.8Zm9.766-12.31H191.1l3.134-14.176h.091ZM220.454 37.635V12.333h.09l5.998 25.302h6.54l6.315-25.302h.09v25.302h6.68V4.838H235.49l-5.45 22.303h-.092l-5.135-22.303h-11.035v32.797h6.676zM262.026 9.88h3.041c2.181 0 3.5 1.181 3.5 4.313 0 2.089-.772 4.815-3.5 4.815h-3.041Zm0 14.172h1.774c5.269 0 4.9 3.315 4.9 7.223 0 2.137-.181 4.362.727 6.36h6.723c-.636-1.36-.772-7.541-.772-9.63 0-5.907-4.453-6.269-5.953-6.451v-.09c4.453-.727 6.087-3.86 6.087-8.041 0-5.587-3-8.584-7.677-8.584h-12.67v32.8h6.859V24.056ZM294.089 33.277c-3.861 0-4.361-3.635-4.361-12.039s.5-12.038 4.361-12.038 4.36 3.637 4.36 12.038-.502 12.039-4.36 12.039Zm0 4.9c11.312 0 11.312-8.358 11.312-16.944 0-8.676 0-16.947-11.312-16.947s-11.312 8.271-11.312 16.947c-.001 8.589-.001 16.948 11.312 16.948Z" fill="#ffffff" class="cls-3"></path></g></svg>